#!OML:ASF I:\Actors\actors\Patient Classification 2\Patient 1\Session 1\actor1.ASF
:FULLY-SPECIFIED
:DEGREES
1274
root -1.09496 18.0379 6.20485 -2.82562 -4.23434 -2.54305
lowerback 2.41572 0.879201 1.12472
upperback -1.48658 1.24658 1.21058
thorax -2.88388 0.611797 0.552248
lowerneck -9.71863 -1.04761 -1.89011
upperneck 15.7914 -1.51919 2.33734
head 6.43111 -0.659276 0.930256
rclavicle 1.29024e-014 1.63997e-015
rhumerus -48.2338 -2.31577 -87.4335
rradius 39.685
rwrist 17.4826
rhand -8.60425 -26.6636
rfingers 7.12502
rthumb 17.3274 -415.911
lclavicle 1.29024e-014 1.63997e-015
lhumerus -43.7793 4.18976 91.0212
lradius 34.9339
lwrist -9.85496
lhand -5.76753 -26.9593
lfingers 7.12502
lthumb 20.0558 2.0256
rfemur 13.5536 -1.76401 17.8266
rtibia 9.54166e-015
rfoot -16.403 -6.42076
rtoes 5.11202
lfemur 21.9343 -7.53476 -15.9845
ltibia -16.3384
lfoot -7.30719 21.3194
ltoes -10.1392
1275
root -1.09225 18.04 6.19833 -2.787 -4.27202 -2.50442
lowerback 2.40919 0.872566 1.11121
upperback -1.47977 1.23697 1.20991
thorax -2.87344 0.607306 0.559747
lowerneck -9.67587 -1.03876 -1.84293
upperneck 15.7262 -1.49688 2.23422
head 6.40132 -0.654507 0.891474
rclavicle 2.3233e-015 -1.78906e-015
rhumerus -48.2543 -2.27769 -87.4173
rradius 39.3826
rwrist 16.6686
rhand -10.0637 -25.8079
rfingers 7.12502
rthumb 15.9223 -415.173
lclavicle 2.3233e-015 -1.78906e-015
lhumerus -43.7549 4.21864 91.0568
lradius 34.9293
lwrist -9.83925
lhand -5.97876 -27.5435
lfingers 7.12502
lthumb 19.8528 1.46249
rfemur 13.4853 -1.72423 17.7826
rtibia 2.38542e-014
rfoot -16.3435 -6.46192
rtoes 5.05802
lfemur 21.8425 -7.54232 -16.0347
ltibia -16.2773
lfoot -7.38465 21.3508
ltoes -10.0003
1276
root -1.08908 18.0428 6.19195 -2.74913 -4.3204 -2.50526
lowerback 2.40882 0.863277 1.15541
upperback -1.46697 1.22576 1.20357
thorax -2.85896 0.600853 0.529134
lowerneck -9.62595 -1.02635 -1.75902
upperneck 15.649 -1.47367 2.11888
head 6.36616 -0.648166 0.842851
rclavicle -1.72197e-014 1.19768e-014
rhumerus -48.2193 -2.43547 -87.2333
rradius 39.4499
rwrist 17.7024
rhand -9.1287 -25.7387
rfingers 7.12502
rthumb 16.8225 -415.03
lclavicle -1.72197e-014 1.19768e-014
lhumerus -43.7253 4.27843 91.0446
lradius 34.912
lwrist -9.88113
lhand -6.32024 -28.1358
lfingers 7.12502
lthumb 19.5245 0.903869
rfemur 13.4152 -1.67563 17.7782
rtibia 1.59028e-015
rfoot -16.342 -6.46607
rtoes 5.31647
lfemur 21.7674 -7.64855 -16.0665
ltibia -16.2321
lfoot -7.48775 21.4935
ltoes -9.68932
1277
root -1.08558 18.045 6.18605 -2.68538 -4.38781 -2.51851
lowerback 2.38225 0.857751 1.22986
upperback -1.46641 1.22006 1.1869
thorax -2.84151 0.59645 0.471045
lowerneck -9.55998 -1.01967 -1.71719
upperneck 15.5772 -1.46412 2.0769
head 6.33109 -0.645085 0.823522
rclavicle 3.46631e-015 9.49197e-015
rhumerus -48.2091 -2.47194 -87.192
rradius 39.3848
rwrist 17.6756
rhand -9.80128 -25.1053
rfingers 7.12502
rthumb 16.175 -414.45
lclavicle 3.46631e-015 9.49197e-015
lhumerus -43.729 4.27611 91.0426
lradius 34.9257
lwrist -9.84915
lhand -6.70487 -28.6913
lfingers 7.12502
lthumb 19.1546 0.38549
rfemur 13.3054 -1.61162 17.7946
rtibia -9.54166e-015
rfoot -16.3369 -6.49118
rtoes 5.20693
lfemur 21.6732 -7.76659 -16.0854
ltibia -16.1986
lfoot -7.55513 21.6648
ltoes -9.36684
1278
root -1.08151 18.048 6.18003 -2.59188 -4.46683 -2.53492
lowerback 2.33453 0.865017 1.31502
upperback -1.47694 1.23158 1.1739
thorax -2.82344 0.60047 0.410164
lowerneck -9.51168 -1.02307 -1.71567
upperneck 15.5118 -1.46845 2.07578
head 6.30201 -0.64767 0.822665
rclavicle 3.21783e-014 -1.00883e-014
rhumerus -48.2363 -2.50682 -87.1343
rradius 39.3862
rwrist 17.6737
rhand -9.77701 -25.2585
rfingers 7.12502
rthumb 16.1984 -414.602
lclavicle 3.21783e-014 -1.00883e-014
lhumerus -43.7442 4.1901 91.0979
lradius 34.9681
lwrist -9.75739
lhand -7.04625 -29.1831
lfingers 7.12502
lthumb 18.8263 -0.0741436
rfemur 13.1583 -1.53763 17.8163
rtibia -5.725e-014
rfoot -16.2746 -6.53863
rtoes 5.04555
lfemur 21.5572 -7.80851 -16.0852
ltibia -16.1781
lfoot -7.56701 21.7699
ltoes -9.32502
1279
root -1.07788 18.0509 6.17358 -2.53169 -4.53552 -2.52335
lowerback 2.33203 0.869023 1.34169
upperback -1.48152 1.23788 1.17343
thorax -2.82618 0.60306 0.394465
lowerneck -9.48434 -1.01279 -1.72937
upperneck 15.456 -1.44999 2.06587
head 6.27921 -0.640631 0.823333
rclavicle 1.88597e-014 6.80837e-015
rhumerus -48.2809 -2.50421 -87.0664
rradius 39.3713
rwrist 17.7379
rhand -9.90169 -25.4627
rfingers 7.12502
rthumb 16.0783 -414.816
lclavicle 1.88597e-014 6.80837e-015
lhumerus -43.734 4.13761 91.1706
lradius 34.9781
lwrist -9.67289
lhand -7.36402 -29.6807
lfingers 7.12502
lthumb 18.5207 -0.542396
rfemur 13.053 -1.47 17.8035
rtibia 2.38542e-014
rfoot -16.2429 -6.56898
rtoes 5.1493
lfemur 21.4851 -7.85028 -16.1185
ltibia -16.1771
lfoot -7.61674 21.872
ltoes -9.23637
1280
root -1.07518 18.0524 6.1669 -2.51703 -4.58596 -2.50354
lowerback 2.3835 0.864238 1.33606
upperback -1.48126 1.23246 1.17381
thorax -2.85505 0.600321 0.397424
lowerneck -9.44232 -0.995127 -1.73436
upperneck 15.3978 -1.42437 2.06372
head 6.25296 -0.629081 0.825664
rclavicle 1.60115e-014 2.12203e-014
rhumerus -48.3259 -2.41798 -87.0544
rradius 39.3519
rwrist 17.6815
rhand -10.0873 -25.5414
rfingers 7.12502
rthumb 15.8996 -414.909
lclavicle 1.60115e-014 2.12203e-014
lhumerus -43.6435 4.14193 91.2294
lradius 34.7997
lwrist -9.52179
lhand -8.04566 -30.6325
lfingers 7.12502
lthumb 17.8649 -1.4331
rfemur 13.0003 -1.41851 17.7808
rtibia 3.18055e-015
rfoot -16.2325 -6.58881
rtoes 5.28053
lfemur 21.4653 -7.95021 -16.1724
ltibia -16.1776
lfoot -7.70625 22.0227
ltoes -8.81709
1281
root -1.0716 18.0532 6.15976 -2.5 -4.62399 -2.51829
lowerback 2.44274 0.859077 1.38744
upperback -1.48127 1.22858 1.1661
thorax -2.88724 0.597123 0.35997
lowerneck -9.39997 -0.984437 -1.69025
upperneck 15.31 -1.40575 2.00151
head 6.21671 -0.622889 0.800191
rclavicle -1.96735e-014 1.78906e-015
rhumerus -48.327 -2.37881 -87.0372
rradius 39.3191
rwrist 17.6318
rhand -10.0488 -25.4521
rfingers 7.12502
rthumb 15.9367 -414.816
lclavicle -1.96735e-014 1.78906e-015
lhumerus -43.4393 4.24729 91.2264
lradius 34.3439
lwrist -9.45961
lhand -9.10361 -31.9242
lfingers 7.12502
lthumb 16.8467 -2.63496
rfemur 12.947 -1.38121 17.793
rtibia -1.59028e-015
rfoot -16.1956 -6.61066
rtoes 5.2976
lfemur 21.4376 -8.01906 -16.1794
ltibia -16.1696
lfoot -7.79332 22.1199
ltoes -8.40152
1282
root -1.06683 18.0542 6.15225 -2.47652 -4.66563 -2.51105
lowerback 2.48103 0.857274 1.44442
upperback -1.46039 1.22812 1.14181
thorax -2.8856 0.595566 0.302699
lowerneck -9.39233 -0.973853 -1.63593
upperneck 15.1946 -1.38215 1.90349
head 6.17737 -0.616319 0.76194
rclavicle 9.2e-015 1.86858e-014
rhumerus -48.2895 -2.39893 -86.9908
rradius 39.289
rwrist 17.6663
rhand -9.88393 -25.3704
rfingers 7.12502
rthumb 16.0954 -414.722
lclavicle 9.2e-015 1.86858e-014
lhumerus -43.3949 3.79664 91.4672
lradius 34.4025
lwrist -8.96301
lhand -9.872 -32.5036
lfingers 7.12502
lthumb 16.1069 -3.15296
rfemur 12.8852 -1.33756 17.7753
rtibia -1.90833e-014
rfoot -16.1576 -6.63161
rtoes 5.26771
lfemur 21.3899 -8.01821 -16.1998
ltibia -16.1667
lfoot -7.85105 22.1411
ltoes -8.1858
1283
root -1.06218 18.0561 6.14587 -2.44954 -4.72403 -2.50193
lowerback 2.49052 0.868649 1.51462
upperback -1.42831 1.24471 1.11216
thorax -2.8557 0.602412 0.232268
lowerneck -9.39304 -0.974159 -1.62879
upperneck 15.1115 -1.37879 1.88143
head 6.15098 -0.616164 0.753962
rclavicle 3.69305e-015 -9.34288e-015
rhumerus -48.2663 -2.40851 -86.957
rradius 39.2909
rwrist 17.6501
rhand -9.89634 -25.2787
rfingers 7.12502
rthumb 16.0835 -414.631
lclavicle 3.69305e-015 -9.34288e-015
lhumerus -43.5578 3.59071 91.5674
lradius 34.9427
lwrist -8.83795
lhand -10.1708 -32.7165
lfingers 7.12502
lthumb 15.8192 -3.34282
rfemur 12.8159 -1.27704 17.7555
rtibia -3.18055e-015
rfoot -16.1358 -6.66285
rtoes 5.21399
lfemur 21.3422 -8.01535 -16.2287
ltibia -16.1615
lfoot -7.84267 22.1972
ltoes -8.21533
1284
root -1.05861 18.0583 6.1403 -2.40436 -4.77442 -2.50896
lowerback 2.48898 0.885981 1.58502
upperback -1.41266 1.26957 1.09243
thorax -2.83662 0.613402 0.17157
lowerneck -9.40176 -0.981913 -1.6591
upperneck 15.0675 -1.38906 1.91439
head 6.13919 -0.620324 0.768516
rclavicle 1.11692e-014 8.24956e-015
rhumerus -48.2623 -2.39699 -86.9289
rradius 39.3027
rwrist 17.651
rhand -10.0277 -25.1387
rfingers 7.12502
rthumb 15.957 -414.501
lclavicle 1.11692e-014 8.24956e-015
lhumerus -43.5507 3.46535 91.6403
lradius 35.0931
lwrist -8.74504
lhand -10.3249 -32.9498
lfingers 7.12502
lthumb 15.6708 -3.56442
rfemur 12.7239 -1.22835 17.761
rtibia -6.36111e-015
rfoot -16.1221 -6.70982
rtoes 5.0882
lfemur 21.2739 -8.06365 -16.2431
ltibia -16.1426
lfoot -7.82577 22.314
ltoes -8.35819
1285
root -1.05546 18.0602 6.13327 -2.3642 -4.82888 -2.48232
lowerback 2.50952 0.891762 1.56973
upperback -1.40164 1.27688 1.08768
thorax -2.83699 0.617325 0.174636
lowerneck -9.43946 -0.966413 -1.71073
upperneck 15.0465 -1.36767 1.96905
head 6.13938 -0.608429 0.795933
rclavicle -3.8732e-015 -3.47873e-016
rhumerus -48.261 -2.31951 -86.9128
rradius 39.3321
rwrist 17.6928
rhand -10.1528 -25.0764
rfingers 7.12502
rthumb 15.8365 -414.449
lclavicle -3.8732e-015 -3.47873e-016
lhumerus -43.4562 3.44559 91.6874
lradius 35.0708
lwrist -8.72318
lhand -10.3357 -33.1534
lfingers 7.12502
lthumb 15.6604 -3.7672
rfemur 12.6289 -1.17399 17.7322
rtibia -5.56597e-014
rfoot -16.1025 -6.7626
rtoes 4.9234
lfemur 21.196 -8.08866 -16.2867
ltibia -16.1174
lfoot -7.82718 22.3969
ltoes -8.40224
1286
root -1.05239 18.0612 6.12566 -2.35492 -4.92979 -2.47323
lowerback 2.5444 0.899017 1.53382
upperback -1.37663 1.28606 1.10501
thorax -2.83197 0.62286 0.211692
lowerneck -9.41628 -0.929919 -1.65974
upperneck 14.9789 -1.31738 1.92007
head 6.11236 -0.585233 0.776066
rclavicle 1.02312e-014 -3.67752e-015
rhumerus -48.264 -2.19539 -86.917
rradius 39.4066
rwrist 17.6548
rhand -10.1829 -25.2107
rfingers 7.12502
rthumb 15.8075 -414.585
lclavicle 1.02312e-014 -3.67752e-015
lhumerus -43.6675 3.27644 91.8152
lradius 35.8318
lwrist -8.54658
lhand -10.1932 -32.9452
lfingers 7.12502
lthumb 15.7976 -3.56984
rfemur 12.5647 -1.07288 17.7227
rtibia 0
rfoot -16.0565 -6.78678
rtoes 4.97612
lfemur 21.1627 -8.11186 -16.322
ltibia -16.0917
lfoot -7.88729 22.4814
ltoes -8.28593
1287
root -1.04998 18.0622 6.11949 -2.34153 -5.02426 -2.4855
lowerback 2.54249 0.912953 1.53941
upperback -1.34208 1.30426 1.10943
thorax -2.79516 0.632193 0.21256
lowerneck -9.34847 -0.902762 -1.56339
upperneck 14.8511 -1.28213 1.84269
head 6.05853 -0.569345 0.738607
rclavicle -2.4786e-014 -9.98893e-015
rhumerus -48.2414 -2.14733 -86.9109
rradius 39.4843
rwrist 17.5972
rhand -10.0382 -25.4203
rfingers 7.12502
rthumb 15.9469 -414.784
lclavicle -2.4786e-014 -9.98893e-015
lhumerus -44.4266 2.76733 92.0571
lradius 38.0576
lwrist -8.11028
lhand -9.64257 -31.8453
lfingers 7.12502
lthumb 16.3278 -2.51267
rfemur 12.5103 -0.980319 17.7396
rtibia -3.18055e-015
rfoot -15.9964 -6.8035
rtoes 5.08431
lfemur 21.1435 -8.18035 -16.3398
ltibia -16.0833
lfoot -7.97223 22.6049
ltoes -8.11466
1288
root -1.04709 18.0633 6.11578 -2.32007 -5.10889 -2.49822
lowerback 2.50203 0.935395 1.59031
upperback -1.30031 1.33391 1.09635
thorax -2.72771 0.646454 0.170322
lowerneck -9.35195 -0.892832 -1.61126
upperneck 14.782 -1.27001 1.90588
head 6.03778 -0.561366 0.767384
rclavicle -5.7865e-015 8.89561e-015
rhumerus -48.1765 -2.18628 -86.8651
rradius 39.5167
rwrist 17.5864
rhand -9.83472 -25.4545
rfingers 7.12502
rthumb 16.1428 -414.802
lclavicle -5.7865e-015 8.89561e-015
lhumerus -44.355 2.64664 92.0894
lradius 38.1357
lwrist -8.13824
lhand -9.57786 -31.8075
lfingers 7.12502
lthumb 16.3901 -2.48
rfemur 12.4556 -0.896577 17.7518
rtibia -1.59028e-014
rfoot -15.9496 -6.83966
rtoes 5.0118
lfemur 21.1176 -8.32908 -16.3803
ltibia -16.05
lfoot -8.06313 22.8322
ltoes -8.03949
